<svg width="43" height="17" viewBox="0 0 43 17" fill="none" xmlns="http://www.w3.org/2000/svg">
<path d="M40.6104 0C41.6273 0.000150556 42.4641 0.759697 42.5908 1.74219C42.2818 1.75234 42.0344 2.005 42.0342 2.31641C42.0342 2.59472 42.2317 2.82722 42.4941 2.88086L42.6104 2.89258V3.75684C42.2924 3.75684 42.0343 4.01412 42.0342 4.33203C42.0342 4.61035 42.2317 4.84286 42.4941 4.89648L42.6104 4.9082V5.77148C41.0203 5.77148 39.7314 7.06131 39.7314 8.65137C39.7317 10.1417 40.864 11.3671 42.3154 11.5146L42.6104 11.5303V12.3936C42.2923 12.3936 42.0342 12.6517 42.0342 12.9697C42.0344 13.2479 42.2318 13.4796 42.4941 13.5332L42.6104 13.5449V14.4092C42.2924 14.4092 42.0343 14.6664 42.0342 14.9844C42.0342 15.2742 42.2487 15.5115 42.5273 15.5518C42.2831 16.3806 41.5182 16.9862 40.6104 16.9863H2C1.09195 16.9863 0.326102 16.3808 0.0820312 15.5518C0.361153 15.5119 0.576172 15.2745 0.576172 14.9844C0.576103 14.7061 0.378676 14.4735 0.116211 14.4199L0 14.4092V13.5449C0.317888 13.5449 0.575972 13.2876 0.576172 12.9697C0.576172 12.6914 0.378671 12.4589 0.116211 12.4053L0 12.3936V11.5303C1.58972 11.5301 2.87858 10.2411 2.87891 8.65137C2.87891 7.06141 1.58992 5.77164 0 5.77148V4.9082C0.318012 4.9082 0.576172 4.65004 0.576172 4.33203C0.576068 4.05384 0.378564 3.82221 0.116211 3.76855L0 3.75684V2.89258C0.318012 2.89258 0.576172 2.63442 0.576172 2.31641C0.57598 2.00467 0.327997 1.75183 0.0185547 1.74219C0.145198 0.75954 0.982916 0 2 0H40.6104Z" fill="#EBEBEB"/>
<path d="M14.0021 5.45455V12H13.0945L9.7674 7.19957H9.70668V12H8.71911V5.45455H9.63317L12.9634 10.2614H13.0241V5.45455H14.0021ZM21.1285 8.72727C21.1285 9.42614 21.0006 10.027 20.7449 10.5298C20.4893 11.0305 20.1388 11.4162 19.6934 11.6868C19.2503 11.9553 18.7464 12.0895 18.1817 12.0895C17.615 12.0895 17.1089 11.9553 16.6636 11.6868C16.2204 11.4162 15.871 11.0295 15.6153 10.5266C15.3596 10.0238 15.2318 9.42401 15.2318 8.72727C15.2318 8.02841 15.3596 7.42862 15.6153 6.92791C15.871 6.42507 16.2204 6.03942 16.6636 5.77095C17.1089 5.50035 17.615 5.36506 18.1817 5.36506C18.7464 5.36506 19.2503 5.50035 19.6934 5.77095C20.1388 6.03942 20.4893 6.42507 20.7449 6.92791C21.0006 7.42862 21.1285 8.02841 21.1285 8.72727ZM20.1505 8.72727C20.1505 8.1946 20.0642 7.74609 19.8916 7.38175C19.7211 7.01527 19.4868 6.73828 19.1885 6.55078C18.8923 6.36115 18.5567 6.26634 18.1817 6.26634C17.8046 6.26634 17.468 6.36115 17.1718 6.55078C16.8756 6.73828 16.6412 7.01527 16.4687 7.38175C16.2982 7.74609 16.213 8.1946 16.213 8.72727C16.213 9.25994 16.2982 9.70952 16.4687 10.076C16.6412 10.4403 16.8756 10.7173 17.1718 10.907C17.468 11.0945 17.8046 11.1882 18.1817 11.1882C18.5567 11.1882 18.8923 11.0945 19.1885 10.907C19.4868 10.7173 19.7211 10.4403 19.8916 10.076C20.0642 9.70952 20.1505 9.25994 20.1505 8.72727ZM27.6428 5.45455V12H26.7351L23.408 7.19957H23.3473V12H22.3597V5.45455H23.2738L26.604 10.2614H26.6648V5.45455H27.6428ZM29.0834 12V5.45455H33.1871V6.30469H30.0709V8.29901H32.9729V9.14595H30.0709V11.1499H33.2254V12H29.0834Z" fill="#6C757D"/>
</svg>
